<?xml version="1.0" standalone="no"?>
<!DOCTYPE svg PUBLIC "-//W3C//DTD SVG 20010904//EN"
 "http://www.w3.org/TR/2001/REC-SVG-20010904/DTD/svg10.dtd">
<svg version="1.0" xmlns="http://www.w3.org/2000/svg"
 width="224.000000pt" height="280.000000pt" viewBox="0 0 224.000000 280.000000"
 preserveAspectRatio="xMidYMid meet">

<g transform="translate(0.000000,280.000000) scale(0.100000,-0.100000)"
fill="#8f5e25" stroke="none">
<path d="M1326 2668 c-10 -45 -28 -180 -24 -183 4 -4 270 33 275 39 2 1 -8 32
-21 67 l-24 64 -56 11 c-133 27 -145 27 -150 2z"/>
<path d="M1605 2322 l6 -133 -43 22 c-24 12 -78 42 -121 66 -43 24 -82 43 -87
41 -4 -2 10 -75 31 -163 36 -144 43 -163 74 -194 l34 -34 50 108 c28 59 51
111 51 116 0 25 30 14 113 -42 50 -34 97 -67 104 -73 7 -6 19 -85 28 -186 9
-96 18 -176 19 -178 2 -1 31 40 65 92 47 71 61 100 56 116 -14 44 -130 204
-211 291 -60 64 -92 109 -117 162 -18 39 -39 83 -45 97 -10 20 -11 0 -7 -108z"/>
<path d="M1160 1470 c0 -6 -9 -72 -21 -147 -23 -150 -24 -146 44 -157 39 -7
39 -7 34 -43 -4 -19 -16 -78 -28 -131 l-22 -95 -26 31 -26 31 -90 -44 c-85
-42 -304 -103 -324 -91 -4 3 -30 53 -56 111 -54 117 -78 135 -89 66 -3 -21
-13 -41 -21 -45 -17 -6 -20 -43 -6 -78 7 -19 23 -26 90 -41 l80 -18 -18 -47
-19 -47 47 3 c38 3 51 -1 71 -20 14 -14 30 -32 35 -42 9 -15 16 -16 55 -7 25
6 59 11 75 11 59 1 61 9 32 106 -14 49 -25 89 -24 90 5 3 202 -96 205 -104 1
-4 -32 -24 -74 -45 -58 -29 -74 -41 -70 -55 3 -9 10 -36 16 -59 6 -24 14 -43
18 -42 4 0 49 19 101 42 l95 42 27 210 26 210 -37 50 -38 51 29 134 c16 74 31
145 34 158 5 21 3 22 -60 22 -38 0 -65 -4 -65 -10z m54 -702 c-13 -20 -32 -5
-38 30 -11 70 -5 79 19 28 13 -28 22 -53 19 -58z"/>
<path d="M1890 1440 l-65 -29 3 -88 c2 -59 -4 -119 -17 -182 l-20 -93 34 -51
34 -51 -19 -32 c-28 -45 -25 -52 10 -19 17 16 28 36 26 44 -3 11 13 28 47 51
44 30 58 48 99 130 26 52 53 123 60 157 l12 62 -58 65 c-32 36 -63 66 -69 66
-7 0 -41 -14 -77 -30z"/>
<path d="M529 1252 c-10 -5 -13 -15 -10 -30 6 -23 6 -23 29 7 22 31 16 38 -19
23z"/>
<path d="M480 1120 c0 -5 7 -10 16 -10 8 0 12 5 9 10 -3 6 -10 10 -16 10 -5 0
-9 -4 -9 -10z"/>
<path d="M374 1054 c3 -9 6 -29 6 -45 0 -27 2 -29 40 -29 22 0 40 4 40 8 0 9
-75 82 -85 82 -4 0 -4 -7 -1 -16z"/>
<path d="M646 1051 c-3 -4 7 -14 22 -20 27 -13 27 -13 8 8 -22 24 -23 24 -30
12z"/>
<path d="M258 1004 c-37 -19 -35 -24 7 -24 28 0 35 4 35 20 0 24 -6 24 -42 4z"/>
<path d="M397 771 c-31 -44 -57 -83 -57 -86 0 -8 136 -2 144 6 11 10 -7 159
-18 159 -6 0 -37 -36 -69 -79z"/>
<path d="M217 783 c-10 -32 -18 -71 -20 -87 l-2 -29 60 2 c33 2 62 5 64 7 6 6
-67 158 -77 162 -5 1 -16 -23 -25 -55z"/>
<path d="M496 633 c12 -104 9 -102 65 -47 27 26 49 53 49 59 0 10 -81 35 -111
35 -5 0 -6 -21 -3 -47z"/>
<path d="M330 660 c0 -12 52 -223 56 -229 4 -5 114 91 114 100 0 4 -38 37 -85
73 -47 36 -85 61 -85 56z"/>
<path d="M995 415 c-21 -74 -41 -135 -45 -135 -3 0 -34 38 -69 85 -62 84 -81
100 -81 69 0 -8 -7 -46 -15 -83 l-16 -68 -77 -21 c-42 -12 -77 -20 -78 -19 -2
1 42 52 96 112 55 61 96 111 92 112 -29 10 -287 61 -290 58 -9 -9 92 -287 128
-352 33 -60 45 -73 65 -73 17 0 26 7 30 23 3 12 11 51 19 86 8 34 17 65 20 68
3 3 42 2 86 -2 l82 -7 -84 -79 c-68 -64 -79 -78 -60 -79 37 0 141 39 196 74
59 38 166 150 166 174 0 16 -110 192 -121 192 -3 0 -23 -61 -44 -135z"/>
<path d="M260 373 c35 -66 62 -101 80 -105 13 -3 53 146 42 157 -3 3 -39 5
-79 5 l-74 0 31 -57z"/>
</g>
</svg>
